<?xml version="1.0" standalone="no"?>
<!DOCTYPE svg PUBLIC "-//W3C//DTD SVG 20010904//EN"
 "http://www.w3.org/TR/2001/REC-SVG-20010904/DTD/svg10.dtd">
<svg version="1.0" xmlns="http://www.w3.org/2000/svg"
 width="636.000000pt" height="724.000000pt" viewBox="0 0 636.000000 724.000000"
 preserveAspectRatio="xMidYMid meet">

<g transform="translate(0.000000,724.000000) scale(0.100000,-0.100000)"
fill="#000000" stroke="none">
<path d="M3550 6486 c-70 -20 -123 -51 -173 -100 -63 -64 -91 -125 -95 -213
-7 -118 27 -181 122 -231 50 -26 55 -27 269 -30 120 -2 217 -8 217 -13 0 -5
-8 -30 -19 -56 -32 -82 -301 -747 -558 -1378 -35 -88 -92 -227 -125 -310 -33
-82 -66 -163 -73 -180 -8 -16 -33 -77 -56 -135 -160 -405 -358 -795 -485 -960
-121 -157 -301 -283 -443 -310 -69 -13 -203 -13 -272 0 -187 35 -352 204 -394
405 -19 92 -19 272 1 375 28 149 103 321 198 450 66 91 206 222 312 292 120
80 223 128 369 173 127 38 202 51 375 65 216 17 331 47 409 104 65 48 95 110
99 208 4 65 0 85 -20 130 -41 87 -114 144 -225 176 -79 23 -406 22 -548 -1
-347 -56 -713 -221 -985 -443 -159 -130 -336 -327 -427 -474 -207 -337 -296
-667 -273 -1018 11 -165 28 -258 70 -375 102 -289 321 -522 599 -638 288 -120
683 -129 986 -21 391 138 695 447 964 976 61 121 108 227 197 446 20 47 44
105 54 130 30 72 84 203 155 380 37 91 82 201 100 245 19 44 52 125 75 180 22
55 49 120 60 145 10 25 35 86 56 135 20 50 45 109 55 133 l18 42 278 0 c290 0
380 8 546 51 416 106 702 526 673 989 -8 127 -26 202 -72 297 -64 134 -176
231 -339 295 -177 70 -200 72 -955 74 -524 2 -685 0 -720 -10z m1303 -587 c43
-12 101 -59 123 -100 8 -17 14 -57 14 -102 0 -127 -64 -225 -183 -277 -71 -32
-406 -56 -421 -31 -3 5 40 124 97 265 l102 256 115 0 c63 0 132 -5 153 -11z"/>
<path d="M3347 1302 c-25 -27 -22 -78 5 -96 51 -36 118 -5 118 53 0 54 -86 84
-123 43z"/>
<path d="M1190 960 l0 -350 60 0 59 0 3 143 3 142 131 5 c121 5 133 7 172 33
70 46 101 135 80 231 -13 62 -65 119 -123 135 -22 6 -118 11 -212 11 l-173 0
0 -350z m335 226 c81 -34 73 -150 -13 -173 -15 -4 -65 -8 -112 -8 l-85 0 -3
98 -3 97 91 0 c56 0 104 -5 125 -14z"/>
<path d="M3100 1183 c0 -123 -1 -127 -18 -107 -32 40 -68 55 -127 55 -137 0
-225 -103 -225 -263 0 -156 87 -259 219 -261 58 0 90 11 129 46 l22 20 0 -31
0 -32 60 0 60 0 0 350 0 350 -60 0 -60 0 0 -127z m-29 -189 c53 -51 62 -159
18 -230 -55 -89 -190 -72 -228 29 -15 39 -14 121 3 160 36 86 138 107 207 41z"/>
<path d="M4190 1215 l0 -95 -35 0 c-35 0 -35 0 -35 -45 0 -45 0 -45 35 -45
l35 0 0 -152 c0 -234 11 -255 144 -265 l76 -6 0 52 0 51 -40 0 c-29 0 -42 5
-50 19 -5 11 -10 83 -10 160 l0 141 50 0 50 0 0 44 0 45 -47 3 -48 3 -3 93 -3
92 -59 0 -60 0 0 -95z"/>
<path d="M4692 1283 c-143 -407 -232 -660 -232 -666 0 -4 29 -7 64 -7 l64 0
24 73 23 72 137 3 136 3 24 -73 25 -73 67 -3 c38 -2 66 1 64 6 -1 5 -57 163
-123 350 l-120 342 -72 0 c-69 0 -71 -1 -81 -27z m178 -405 c0 -5 -44 -8 -99
-8 l-99 0 44 138 c25 75 47 144 50 152 5 12 104 -257 104 -282z"/>
<path d="M5170 960 l0 -350 60 0 60 0 0 350 0 350 -60 0 -60 0 0 -350z"/>
<path d="M2030 1131 c-41 -9 -72 -24 -90 -45 -18 -23 -30 -20 -30 9 0 24 -3
25 -60 25 l-60 0 0 -255 0 -255 59 0 59 0 4 158 c3 124 7 164 21 189 20 38 63
63 107 63 l30 0 0 60 c0 33 -1 59 -2 59 -2 -1 -19 -4 -38 -8z"/>
<path d="M2338 1129 c-159 -24 -248 -214 -178 -377 41 -95 119 -144 232 -144
99 -1 170 37 216 112 l33 55 -61 3 c-57 3 -62 1 -86 -27 -59 -71 -177 -54
-218 32 -32 69 -38 67 180 67 l196 0 -7 53 c-4 28 -12 63 -17 77 -41 110 -157
170 -290 149z m122 -102 c28 -14 72 -75 64 -88 -3 -5 -61 -9 -129 -9 -68 0
-126 4 -129 9 -8 13 36 74 64 88 32 16 98 16 130 0z"/>
<path d="M3766 1129 c-67 -10 -134 -55 -170 -112 -23 -38 -30 -62 -34 -120 -5
-87 8 -140 49 -196 64 -90 222 -123 326 -69 51 26 113 97 113 129 0 16 -7 19
-55 19 -52 0 -58 -3 -95 -41 -38 -40 -41 -41 -90 -37 -83 8 -130 68 -130 168
0 99 47 160 129 168 47 4 53 2 87 -32 33 -33 41 -36 95 -36 32 0 59 2 59 5 0
3 -9 23 -20 45 -42 83 -147 126 -264 109z"/>
<path d="M3340 865 l0 -255 60 0 60 0 0 255 0 255 -60 0 -60 0 0 -255z"/>
</g>
</svg>
