<?xml version="1.0" standalone="no"?>
<!DOCTYPE svg PUBLIC "-//W3C//DTD SVG 20010904//EN"
 "http://www.w3.org/TR/2001/REC-SVG-20010904/DTD/svg10.dtd">
<svg version="1.0" xmlns="http://www.w3.org/2000/svg"
 width="892.000000pt" height="296.000000pt" viewBox="0 0 892.000000 296.000000"
 preserveAspectRatio="xMidYMid meet">

<g transform="translate(0.000000,296.000000) scale(0.100000,-0.100000)"
fill="#000000" stroke="none">
<path d="M950 2238 c-33 -9 -80 -37 -108 -65 -7 -7 -23 -13 -34 -13 -85 0
-188 -121 -190 -224 0 -39 -5 -49 -27 -62 -15 -9 -42 -38 -60 -64 -56 -83 -66
-174 -26 -255 31 -64 41 -76 94 -112 43 -29 45 -33 46 -84 3 -83 53 -162 126
-200 30 -15 39 -25 39 -45 0 -34 28 -95 54 -116 17 -14 18 -20 8 -43 -16 -35
-15 -70 3 -85 8 -7 15 -27 15 -46 0 -53 16 -84 48 -90 18 -4 35 -18 50 -45 30
-52 72 -73 136 -66 40 3 55 11 78 36 15 17 28 38 28 46 0 7 15 19 34 26 41 15
61 47 53 85 -3 19 1 36 14 53 22 27 24 50 8 85 -10 21 -7 29 21 64 19 25 34
56 37 82 4 31 11 44 29 50 41 16 102 80 120 127 10 24 18 67 18 94 0 43 4 51
23 55 34 9 109 98 127 151 37 108 -1 232 -91 293 -29 20 -33 28 -33 67 0 24
-9 63 -20 87 -31 68 -120 136 -179 136 -11 0 -24 6 -28 13 -16 27 -72 59 -114
67 -28 5 -61 3 -98 -6 -38 -10 -63 -12 -80 -5 -43 16 -84 19 -121 9z m105 -60
l25 -11 0 -250 c0 -236 -1 -250 -21 -278 -40 -56 -138 -86 -190 -58 -17 8 -23
7 -35 -8 -19 -26 -18 -29 18 -44 54 -22 127 -17 181 14 l47 27 0 -269 c0 -299
2 -289 -69 -298 -57 -8 -97 12 -126 62 -29 49 -31 65 -9 65 33 0 72 -33 84
-72 11 -30 18 -38 38 -38 23 0 24 3 19 36 -11 68 -64 118 -137 130 -69 11 -79
14 -110 40 -42 36 -72 97 -68 142 l3 36 60 -3 c81 -4 131 -31 156 -84 10 -23
19 -50 19 -59 0 -12 8 -18 25 -18 19 0 25 5 25 23 0 116 -104 197 -254 197
-43 0 -71 6 -93 20 -43 26 -41 36 7 44 22 3 40 11 40 16 0 6 6 10 13 10 31 0
88 84 100 148 6 30 5 32 -21 32 -23 0 -29 -6 -42 -47 -20 -62 -83 -113 -140
-113 -47 0 -62 20 -62 87 0 59 17 100 61 146 30 32 41 37 79 37 23 0 56 -7 72
-15 37 -19 80 -75 80 -104 0 -18 5 -22 28 -19 28 3 31 13 18 55 -6 20 -3 23
31 29 58 9 113 63 113 111 0 36 -44 31 -59 -6 -22 -53 -108 -69 -161 -30 -17
13 -50 24 -79 27 -47 4 -51 7 -51 31 0 51 20 98 61 139 23 23 48 42 55 42 7 0
19 3 28 6 11 4 20 -5 32 -34 21 -48 71 -83 130 -92 43 -7 44 -6 44 22 0 24 -4
28 -28 28 -42 0 -94 41 -105 82 -14 52 100 97 168 66z m213 1 c39 -13 62 -47
51 -76 -11 -31 -72 -73 -106 -73 -26 0 -30 -3 -29 -27 1 -31 18 -35 76 -21 41
11 110 76 110 104 0 51 112 -7 148 -76 7 -14 14 -45 15 -69 2 -44 2 -45 -38
-53 -21 -5 -59 -24 -84 -43 -27 -22 -55 -35 -73 -35 -42 0 -85 25 -92 55 -5
18 -13 25 -31 25 -35 0 -33 -36 6 -83 23 -28 41 -39 71 -43 40 -7 40 -7 34
-44 -4 -28 -2 -39 9 -44 24 -9 45 4 45 29 0 27 36 81 70 107 14 10 47 21 73
24 44 6 51 4 78 -22 45 -42 69 -96 69 -151 0 -79 -7 -93 -46 -93 -67 0 -134
55 -134 111 0 15 -7 19 -30 19 -30 0 -31 -1 -24 -37 4 -20 11 -42 16 -48 4 -5
18 -22 29 -38 21 -27 76 -57 112 -60 30 -2 -31 -46 -73 -52 -121 -19 -142 -27
-184 -70 -39 -39 -66 -97 -66 -139 0 -10 8 -16 24 -16 19 0 26 8 36 44 12 43
71 112 84 99 3 -4 6 -2 6 3 0 6 21 11 46 13 l47 2 -5 -49 c-8 -88 -86 -161
-170 -163 -71 -1 -110 -20 -145 -73 -18 -27 -33 -59 -33 -72 0 -21 4 -24 27
-21 21 3 29 11 35 35 11 40 52 72 94 72 38 0 40 -6 20 -54 -27 -64 -130 -98
-184 -60 -22 15 -22 18 -22 284 l0 269 43 -24 c55 -31 105 -39 153 -26 49 14
74 30 57 38 -7 2 -13 11 -13 19 0 10 -6 11 -26 4 -37 -14 -101 -12 -133 5 -16
8 -40 28 -55 46 l-26 31 2 251 3 251 25 13 c31 16 67 16 108 2z m20 -1266 l3
-23 -185 0 c-174 0 -186 1 -186 18 0 10 3 22 7 26 4 3 86 5 182 4 174 -3 176
-3 179 -25z m-24 -94 c5 -5 4 -14 -4 -24 -10 -12 -38 -15 -154 -15 -145 0
-173 6 -163 34 5 13 29 16 139 18 139 3 167 1 182 -13z m-96 -109 c-2 -8 -15
-21 -30 -29 -32 -18 -73 -7 -94 24 -13 19 -11 20 57 20 56 0 69 -3 67 -15z"/>
<path d="M344 2139 c-10 -11 -14 -23 -8 -27 10 -9 117 -90 176 -134 l36 -28
15 24 c15 22 13 24 -93 104 -106 79 -108 80 -126 61z"/>
<path d="M1738 2077 c-104 -78 -106 -81 -91 -103 l15 -23 81 60 c154 115 145
106 122 128 -20 19 -21 18 -127 -62z"/>
<path d="M4948 1766 l-3 -205 -40 35 c-22 18 -42 34 -45 34 -3 0 -32 5 -65 10
-145 24 -276 -44 -342 -178 -21 -44 -28 -74 -31 -143 -6 -124 23 -209 98 -286
104 -105 302 -115 404 -20 30 28 37 32 35 20 -1 -5 -1 -23 0 -40 l1 -33 90 0
90 0 -2 503 -3 502 -92 3 -93 3 -2 -205z m-65 -302 c66 -50 93 -147 68 -241
-33 -120 -209 -160 -291 -66 -40 46 -50 72 -50 139 0 128 72 199 191 190 35
-2 67 -11 82 -22z"/>
<path d="M5356 1916 c-40 -41 -45 -69 -21 -121 29 -61 114 -75 164 -27 69 67
34 168 -64 179 -38 5 -46 2 -79 -31z"/>
<path d="M2347 1903 c-4 -3 -7 -217 -7 -475 l0 -468 100 0 100 0 0 170 0 170
123 0 c144 0 203 14 270 65 118 90 141 294 48 422 -76 104 -138 122 -427 123
-110 0 -204 -3 -207 -7z m427 -174 c43 -16 68 -54 74 -109 5 -59 -17 -109 -61
-135 -26 -16 -52 -19 -137 -20 l-105 0 -3 138 -3 137 103 0 c56 0 115 -5 132
-11z"/>
<path d="M7264 1863 c-10 -26 -19 -51 -20 -55 -1 -5 -3 -10 -4 -13 -1 -3 -3
-8 -5 -12 -1 -5 -6 -19 -12 -33 -6 -14 -18 -45 -26 -70 -20 -57 -70 -193 -206
-560 l-58 -155 100 -3 c104 -3 107 -2 111 20 4 22 46 142 55 156 6 10 52 13
202 12 106 0 197 -4 201 -8 5 -5 21 -46 36 -93 l29 -84 101 -3 c56 -1 102 -1
102 0 0 2 -78 215 -174 473 l-173 470 -120 3 -120 3 -19 -48z m211 -347 c36
-104 65 -190 65 -192 0 -2 -63 -4 -139 -4 l-140 0 59 168 c70 201 79 226 85
220 2 -2 34 -89 70 -192z"/>
<path d="M8017 1903 c-4 -3 -7 -217 -7 -475 l0 -468 100 0 100 0 0 475 0 475
-93 0 c-52 0 -97 -3 -100 -7z"/>
<path d="M6556 1781 c-10 -117 -23 -134 -106 -144 -25 -3 -46 -6 -47 -6 -2 -1
-3 -32 -3 -71 l0 -69 68 -3 67 -3 2 -190 c2 -209 8 -238 62 -289 17 -17 31
-26 31 -22 0 5 7 2 16 -5 11 -9 53 -15 119 -17 l102 -4 -2 68 c-1 38 -3 71 -3
74 -1 3 -20 6 -43 7 -22 1 -51 9 -65 18 -26 17 -27 25 -28 262 l-1 103 73 0
73 0 -3 70 c-2 38 -5 70 -8 71 -3 1 -32 2 -65 4 -75 3 -73 3 -72 18 0 6 -1 54
-1 105 l-2 92 -79 0 -78 0 -7 -69z"/>
<path d="M290 1705 c0 -25 1 -25 80 -25 79 0 80 0 80 25 0 25 -1 25 -80 25
-79 0 -80 0 -80 -25z"/>
<path d="M1760 1705 c0 -25 1 -25 80 -25 79 0 80 0 80 25 0 25 -1 25 -80 25
-79 0 -80 0 -80 -25z"/>
<path d="M3895 1636 c-109 -27 -183 -89 -226 -186 -19 -44 -24 -73 -24 -145 0
-102 13 -154 52 -212 30 -43 94 -103 115 -107 7 -2 27 -9 43 -16 53 -22 197
-25 256 -6 97 32 176 104 194 177 6 26 6 26 -79 35 -74 8 -87 7 -92 -6 -19
-54 -137 -88 -206 -59 -48 19 -97 83 -98 126 l0 23 247 2 c283 3 259 -7 243
111 -22 149 -105 240 -246 266 -72 14 -115 13 -179 -3z m141 -125 c42 -2 116
-93 99 -121 -4 -6 -290 -7 -303 -1 -8 4 32 77 50 90 25 18 96 39 118 35 8 -1
25 -3 36 -3z"/>
<path d="M5947 1640 c-64 -11 -144 -51 -186 -92 -19 -18 -48 -62 -64 -97 -25
-54 -30 -76 -30 -145 -1 -140 53 -246 154 -303 188 -105 432 -47 509 122 32
70 30 72 -62 81 l-83 9 -20 -35 c-63 -108 -223 -108 -284 0 -72 128 -11 297
115 316 77 11 162 -37 186 -106 3 -10 154 3 165 14 3 3 -2 27 -12 53 -26 70
-106 147 -173 166 -69 21 -156 28 -215 17z"/>
<path d="M3180 1301 l0 -341 95 0 95 0 0 183 c0 191 8 245 42 279 28 28 81 48
128 48 l40 0 0 85 c0 82 -1 85 -23 85 -42 0 -114 -31 -156 -66 l-41 -36 0 46
0 46 -74 0 c-41 0 -81 3 -90 6 -14 6 -16 -28 -16 -335z"/>
<path d="M5343 1634 c-10 -4 -13 -82 -13 -340 l0 -334 95 0 95 0 0 339 0 338
-82 1 c-46 0 -89 -2 -95 -4z"/>
<path d="M1648 1405 c-17 -22 -15 -23 90 -103 107 -81 107 -81 127 -61 13 12
16 22 10 27 -6 4 -56 41 -111 83 l-99 76 -17 -22z"/>
<path d="M459 1362 c-142 -108 -134 -100 -115 -121 17 -19 21 -17 127 61 104
77 108 82 93 100 -10 10 -20 18 -23 18 -3 0 -40 -26 -82 -58z"/>
<path d="M647 1072 l-58 -58 21 -19 c21 -19 21 -18 77 38 56 57 57 58 37 77
-19 20 -20 20 -77 -38z"/>
<path d="M1485 1110 c-19 -21 -18 -21 38 -78 l57 -57 20 20 20 21 -58 57 -58
58 -19 -21z"/>
</g>
</svg>
